<mxfile host="app.diagrams.net" agent="Mozilla/5.0 (Windows NT 10.0; Win64; x64) AppleWebKit/537.36 (KHTML, like Gecko) Chrome/133.0.0.0 Safari/537.36" version="26.0.14">
  <diagram id="pBbY2Ada5lKkusDm9l9W" name="페이지-1">
    <mxGraphModel dx="2273" dy="973" grid="1" gridSize="10" guides="1" tooltips="1" connect="1" arrows="1" fold="1" page="0" pageScale="1" pageWidth="1169" pageHeight="827" background="none" math="0" shadow="0">
      <root>
        <mxCell id="0" />
        <mxCell id="1" parent="0" />
        <mxCell id="node9" value="&lt;p style=&quot;margin:0px;margin-top:4px;text-align:center;&quot;&gt;&lt;i&gt;&amp;lt;&amp;lt;interface&amp;gt;&amp;gt;&lt;/i&gt;&lt;br/&gt;&lt;b&gt;Addable&lt;T&gt;&lt;/b&gt;&lt;/p&gt;&lt;hr size=&quot;1&quot;/&gt;&lt;p style=&quot;margin:0 0 0 4px;line-height:1.6;&quot;&gt;+ addObject(T): void&lt;/p&gt;" style="verticalAlign=top;align=left;overflow=fill;fontSize=14;fontFamily=Helvetica;html=1;rounded=0;shadow=0;comic=0;labelBackgroundColor=none;strokeWidth=1;" parent="1" vertex="1">
          <mxGeometry x="452" y="1405" width="152" height="75" as="geometry" />
        </mxCell>
        <mxCell id="node12" value="&lt;p style=&quot;margin:0px;margin-top:4px;text-align:center;&quot;&gt;&lt;i&gt;&amp;lt;&amp;lt;interface&amp;gt;&amp;gt;&lt;/i&gt;&lt;br/&gt;&lt;b&gt;Calculable&lt;/b&gt;&lt;/p&gt;&lt;hr size=&quot;1&quot;/&gt;&lt;p style=&quot;margin:0 0 0 4px;line-height:1.6;&quot;&gt;+ calculate(int, int, int, int): int&lt;/p&gt;" style="verticalAlign=top;align=left;overflow=fill;fontSize=14;fontFamily=Helvetica;html=1;rounded=0;shadow=0;comic=0;labelBackgroundColor=none;strokeWidth=1;" parent="1" vertex="1">
          <mxGeometry x="660" y="1405" width="203" height="75" as="geometry" />
        </mxCell>
        <mxCell id="node8" value="&lt;p style=&quot;margin:0px;margin-top:4px;text-align:center;&quot;&gt;&lt;b&gt;Employee&lt;/b&gt;&lt;/p&gt;&lt;hr size=&quot;1&quot;/&gt;&lt;p style=&quot;margin:0 0 0 4px;line-height:1.6;&quot;&gt;+ setEmpNo(String): void&lt;br/&gt;+ compareTo(Employee): int&lt;br/&gt;+ getName(): String&lt;br/&gt;+ setName(String): void&lt;br/&gt;+ toString(): String&lt;br/&gt;+ getEmpNo(): String&lt;/p&gt;&lt;hr size=&quot;1&quot;/&gt;&lt;p style=&quot;margin:0 0 0 4px;line-height:1.6;&quot;&gt;+ Employee(): &lt;br/&gt;+ Employee(String): &lt;br/&gt;+ Employee(int): &lt;/p&gt;&lt;hr size=&quot;1&quot;/&gt;&lt;p style=&quot;margin:0 0 0 4px;line-height:1.6;&quot;&gt;- name: String&lt;br/&gt;- empNo: String&lt;/p&gt;" style="verticalAlign=top;align=left;overflow=fill;fontSize=14;fontFamily=Helvetica;html=1;rounded=0;shadow=0;comic=0;labelBackgroundColor=none;strokeWidth=1;" parent="1" vertex="1">
          <mxGeometry x="690" y="478" width="189" height="412" as="geometry" />
        </mxCell>
        <mxCell id="node2" value="&lt;p style=&quot;margin:0px;margin-top:4px;text-align:center;&quot;&gt;&lt;b&gt;InterfaceIO&lt;T, U&gt;&lt;/b&gt;&lt;/p&gt;&lt;hr size=&quot;1&quot;/&gt;&lt;p style=&quot;margin:0 0 0 4px;line-height:1.6;&quot;&gt;+ print(Printable&amp;lt;T&amp;gt;, Supplier&amp;lt;T&amp;gt;): void&lt;br/&gt;+ print(Printable&amp;lt;T&amp;gt;, T): void&lt;br/&gt;+ search(Searchable&amp;lt;T&amp;gt;, Function&amp;lt;U, T&amp;gt;, U): T&lt;br/&gt;+ add(Addable&amp;lt;T&amp;gt;, Function&amp;lt;U, T&amp;gt;, U): void&lt;/p&gt;&lt;hr size=&quot;1&quot;/&gt;&lt;p style=&quot;margin:0 0 0 4px;line-height:1.6;&quot;&gt;+ InterfaceIO(): &lt;/p&gt;" style="verticalAlign=top;align=left;overflow=fill;fontSize=14;fontFamily=Helvetica;html=1;rounded=0;shadow=0;comic=0;labelBackgroundColor=none;strokeWidth=1;" parent="1" vertex="1">
          <mxGeometry x="20" y="1310" width="370" height="170" as="geometry" />
        </mxCell>
        <mxCell id="node10" value="&lt;p style=&quot;margin:0px;margin-top:4px;text-align:center;&quot;&gt;&lt;b&gt;Menu&lt;/b&gt;&lt;/p&gt;&lt;hr size=&quot;1&quot;/&gt;&lt;p style=&quot;margin:0 0 0 4px;line-height:1.6;&quot;&gt;~ searchItem(ObjectDBIO, String): boolean&lt;br/&gt;~ startSystem(): void&lt;br/&gt;~ getEmployee(ObjectDBIO&amp;lt;Employee&amp;gt;, String): Employee&lt;br/&gt;~ getEmployee(ObjectDBIO&amp;lt;Employee&amp;gt;, int): Employee&lt;br/&gt;~ studentSystem(ObjectDBIO): void&lt;br/&gt;~ getStudent(ObjectDBIO&amp;lt;Student&amp;gt;, int): Student&lt;br/&gt;~ addItem(ObjectDBIO, String): boolean&lt;br/&gt;~ checkValidScore(int): int&lt;br/&gt;~ getStudent(ObjectDBIO&amp;lt;Student&amp;gt;, String): Student&lt;br/&gt;~ printAll(ObjectDBIO): void&lt;br/&gt;~ sort(ObjectDBIO, By): void&lt;br/&gt;~ searchItem(ObjectDBIO, int): boolean&lt;/p&gt;&lt;hr size=&quot;1&quot;/&gt;&lt;p style=&quot;margin:0 0 0 4px;line-height:1.6;&quot;&gt;+ Menu(): &lt;/p&gt;&lt;hr size=&quot;1&quot;/&gt;&lt;p style=&quot;margin:0 0 0 4px;line-height:1.6;&quot;&gt;~ SEARCH: int&lt;br/&gt;~ ADD: int&lt;br/&gt;~ SAVE: int&lt;br/&gt;~ PRINT: int&lt;br/&gt;~ EMPLOYEE: int&lt;br/&gt;~ sc: Scanner&lt;br/&gt;~ STUDENT: int&lt;/p&gt;" style="verticalAlign=top;align=left;overflow=fill;fontSize=14;fontFamily=Helvetica;html=1;rounded=0;shadow=0;comic=0;labelBackgroundColor=none;strokeWidth=1;" parent="1" vertex="1">
          <mxGeometry x="270" y="478" width="358" height="518" as="geometry" />
        </mxCell>
        <mxCell id="LxbtsxUVexwaK-v7w1F4-5" value="" style="edgeStyle=orthogonalEdgeStyle;rounded=0;orthogonalLoop=1;jettySize=auto;html=1;" edge="1" parent="1" source="node7" target="node0">
          <mxGeometry relative="1" as="geometry" />
        </mxCell>
        <mxCell id="node7" value="&lt;p style=&quot;margin:0px;margin-top:4px;text-align:center;&quot;&gt;&lt;b&gt;ObjectDBIO&lt;T&gt;&lt;/b&gt;&lt;/p&gt;&lt;hr size=&quot;1&quot;/&gt;&lt;p style=&quot;margin:0 0 0 4px;line-height:1.6;&quot;&gt;+ getInstance(Class&amp;lt;T&amp;gt;): ObjectDBIO&amp;lt;T&amp;gt;&lt;br/&gt;+ getType(): Class&amp;lt;T&amp;gt;&lt;br/&gt;~ readDB(): void&lt;br/&gt;~ pushDB(): void&lt;br/&gt;- getManager(): ObjectManager&amp;lt;T&amp;gt;&lt;/p&gt;&lt;hr size=&quot;1&quot;/&gt;&lt;p style=&quot;margin:0 0 0 4px;line-height:1.6;&quot;&gt;# ObjectDBIO(Class&amp;lt;T&amp;gt;): &lt;/p&gt;&lt;hr size=&quot;1&quot;/&gt;&lt;p style=&quot;margin:0 0 0 4px;line-height:1.6;&quot;&gt;- type: Class&amp;lt;T&amp;gt;&lt;br/&gt;- INSTANCES: ConcurrentMap&amp;lt;Class&amp;lt;?&amp;gt;, ObjectDBIO&amp;lt;?&amp;gt;&amp;gt;&lt;/p&gt;" style="verticalAlign=top;align=left;overflow=fill;fontSize=14;fontFamily=Helvetica;html=1;rounded=0;shadow=0;comic=0;labelBackgroundColor=none;strokeWidth=1;" parent="1" vertex="1">
          <mxGeometry x="214" y="1020" width="390" height="256" as="geometry" />
        </mxCell>
        <mxCell id="LxbtsxUVexwaK-v7w1F4-4" value="" style="edgeStyle=orthogonalEdgeStyle;rounded=0;orthogonalLoop=1;jettySize=auto;html=1;" edge="1" parent="1" source="node11" target="node7">
          <mxGeometry relative="1" as="geometry" />
        </mxCell>
        <mxCell id="node11" value="&lt;p style=&quot;margin:0px;margin-top:4px;text-align:center;&quot;&gt;&lt;b&gt;ObjectIO&lt;/b&gt;&lt;/p&gt;&lt;hr size=&quot;1&quot;/&gt;&lt;p style=&quot;margin:0 0 0 4px;line-height:1.6;&quot;&gt;~ readDB(): void&lt;br/&gt;~ pushDB(): void&lt;/p&gt;&lt;hr size=&quot;1&quot;/&gt;&lt;p style=&quot;margin:0 0 0 4px;line-height:1.6;&quot;&gt;+ ObjectIO(): &lt;/p&gt;" style="verticalAlign=top;align=left;overflow=fill;fontSize=14;fontFamily=Helvetica;html=1;rounded=0;shadow=0;comic=0;labelBackgroundColor=none;strokeWidth=1;" parent="1" vertex="1">
          <mxGeometry x="20" y="1088.5" width="127" height="119" as="geometry" />
        </mxCell>
        <mxCell id="node0" value="&lt;p style=&quot;margin:0px;margin-top:4px;text-align:center;&quot;&gt;&lt;b&gt;ObjectManager&lt;T&gt;&lt;/b&gt;&lt;/p&gt;&lt;hr size=&quot;1&quot;/&gt;&lt;p style=&quot;margin:0 0 0 4px;line-height:1.6;&quot;&gt;+ iterator(): Iterator&amp;lt;T&amp;gt;&lt;br/&gt;+ setObjects(ArrayList&amp;lt;T&amp;gt;): void&lt;br/&gt;+ getObjects(): ArrayList&amp;lt;T&amp;gt;&lt;/p&gt;&lt;hr size=&quot;1&quot;/&gt;&lt;p style=&quot;margin:0 0 0 4px;line-height:1.6;&quot;&gt;# ObjectManager(Class&amp;lt;T&amp;gt;): &lt;/p&gt;&lt;hr size=&quot;1&quot;/&gt;&lt;p style=&quot;margin:0 0 0 4px;line-height:1.6;&quot;&gt;- objects: ArrayList&amp;lt;T&amp;gt;&lt;/p&gt;" style="verticalAlign=top;align=left;overflow=fill;fontSize=14;fontFamily=Helvetica;html=1;rounded=0;shadow=0;comic=0;labelBackgroundColor=none;strokeWidth=1;" parent="1" vertex="1">
          <mxGeometry x="669" y="1058" width="210" height="180" as="geometry" />
        </mxCell>
        <mxCell id="node1" value="&lt;p style=&quot;margin:0px;margin-top:4px;text-align:center;&quot;&gt;&lt;i&gt;&amp;lt;&amp;lt;interface&amp;gt;&amp;gt;&lt;/i&gt;&lt;br/&gt;&lt;b&gt;Printable&lt;T&gt;&lt;/b&gt;&lt;/p&gt;&lt;hr size=&quot;1&quot;/&gt;&lt;p style=&quot;margin:0 0 0 4px;line-height:1.6;&quot;&gt;+ printObject(T): void&lt;/p&gt;" style="verticalAlign=top;align=left;overflow=fill;fontSize=14;fontFamily=Helvetica;html=1;rounded=0;shadow=0;comic=0;labelBackgroundColor=none;strokeWidth=1;" parent="1" vertex="1">
          <mxGeometry x="452" y="1310" width="152" height="76" as="geometry" />
        </mxCell>
        <mxCell id="node6" value="&lt;p style=&quot;margin:0px;margin-top:4px;text-align:center;&quot;&gt;&lt;i&gt;&amp;lt;&amp;lt;interface&amp;gt;&amp;gt;&lt;/i&gt;&lt;br/&gt;&lt;b&gt;Searchable&lt;T&gt;&lt;/b&gt;&lt;/p&gt;&lt;hr size=&quot;1&quot;/&gt;&lt;p style=&quot;margin:0 0 0 4px;line-height:1.6;&quot;&gt;+ searchObject(T): T&lt;/p&gt;" style="verticalAlign=top;align=left;overflow=fill;fontSize=14;fontFamily=Helvetica;html=1;rounded=0;shadow=0;comic=0;labelBackgroundColor=none;strokeWidth=1;" parent="1" vertex="1">
          <mxGeometry x="660" y="1310" width="144" height="75" as="geometry" />
        </mxCell>
        <mxCell id="node5" value="&lt;p style=&quot;margin:0px;margin-top:4px;text-align:center;&quot;&gt;&lt;b&gt;TESTMAIN&lt;/b&gt;&lt;/p&gt;&lt;hr size=&quot;1&quot;/&gt;&lt;p style=&quot;margin:0 0 0 4px;line-height:1.6;&quot;&gt;+ main(String[]): void&lt;/p&gt;&lt;hr size=&quot;1&quot;/&gt;&lt;p style=&quot;margin:0 0 0 4px;line-height:1.6;&quot;&gt;+ TESTMAIN(): &lt;/p&gt;" style="verticalAlign=top;align=left;overflow=fill;fontSize=14;fontFamily=Helvetica;html=1;rounded=0;shadow=0;comic=0;labelBackgroundColor=none;strokeWidth=1;" parent="1" vertex="1">
          <mxGeometry x="669" y="920" width="210" height="100" as="geometry" />
        </mxCell>
        <mxCell id="LxbtsxUVexwaK-v7w1F4-1" value="&lt;p style=&quot;margin:0px;margin-top:4px;text-align:center;&quot;&gt;&lt;b&gt;Student&lt;/b&gt;&lt;/p&gt;&lt;hr size=&quot;1&quot;&gt;&lt;p style=&quot;margin: 0px 0px 0px 4px; line-height: 1.6;&quot;&gt;&lt;span style=&quot;background-color: transparent; color: light-dark(rgb(0, 0, 0), rgb(255, 255, 255));&quot;&gt;+ compareTo(Student): int&lt;/span&gt;&lt;/p&gt;&lt;p style=&quot;margin: 0px 0px 0px 4px; line-height: 1.6;&quot;&gt;+ grade(): String&lt;br&gt;+ toString(): String&lt;br&gt;+ hashCode(): int&lt;br&gt;+ equals(Object): boolean&lt;br&gt;+ sum(Calculable): int&lt;br&gt;+ avg(): float&lt;/p&gt;&lt;hr size=&quot;1&quot;&gt;&lt;p style=&quot;margin: 0px 0px 0px 4px; line-height: 1.6;&quot;&gt;&lt;span style=&quot;background-color: transparent; color: light-dark(rgb(0, 0, 0), rgb(255, 255, 255));&quot;&gt;+ Student():&lt;/span&gt;&lt;/p&gt;&lt;p style=&quot;margin: 0px 0px 0px 4px; line-height: 1.6;&quot;&gt;+ Student(String):&lt;br&gt;+ Student(int):&lt;/p&gt;&lt;hr size=&quot;1&quot;&gt;&lt;p style=&quot;margin:0 0 0 4px;line-height:1.6;&quot;&gt;&lt;span style=&quot;background-color: transparent; color: light-dark(rgb(0, 0, 0), rgb(255, 255, 255));&quot;&gt;- korean: int&lt;/span&gt;&lt;/p&gt;&lt;p style=&quot;margin: 0px 0px 0px 4px; line-height: 1.6;&quot;&gt;- grade: String&lt;br&gt;- science: int&lt;br&gt;- math: int&lt;br&gt;- english: int&lt;br&gt;- name: String&lt;br&gt;- sno: String&lt;br&gt;- total: int&lt;br&gt;- average: float&lt;/p&gt;" style="verticalAlign=top;align=left;overflow=fill;fontSize=14;fontFamily=Helvetica;html=1;rounded=0;shadow=0;comic=0;labelBackgroundColor=none;strokeWidth=1;" vertex="1" parent="1">
          <mxGeometry x="20" y="478" width="189" height="500" as="geometry" />
        </mxCell>
      </root>
    </mxGraphModel>
  </diagram>
</mxfile>
